<svg width="19" height="19" viewBox="0 0 19 19" fill="none" xmlns="http://www.w3.org/2000/svg">
<g id="Phone call" clip-path="url(#clip0_3_286)">
<path id="Icon" d="M11.9146 3.95835C12.6879 4.10922 13.3985 4.48739 13.9556 5.04447C14.5127 5.60155 14.8908 6.31219 15.0417 7.08544M11.9146 0.791687C13.5211 0.970157 15.0192 1.68958 16.1629 2.83182C17.3066 3.97406 18.0279 5.47124 18.2084 7.07752M17.4167 13.395V15.77C17.4176 15.9905 17.3724 16.2087 17.2841 16.4108C17.1958 16.6128 17.0662 16.7941 16.9038 16.9432C16.7413 17.0922 16.5495 17.2057 16.3406 17.2763C16.1318 17.347 15.9104 17.3732 15.6909 17.3534C13.2548 17.0887 10.9147 16.2562 8.85878 14.9229C6.94598 13.7075 5.32425 12.0857 4.10878 10.1729C2.77084 8.10764 1.93822 5.75622 1.67836 3.30919C1.65858 3.09027 1.6846 2.86962 1.75476 2.66131C1.82492 2.45299 1.93769 2.26157 2.08588 2.09922C2.23408 1.93687 2.41446 1.80717 2.61553 1.71835C2.8166 1.62954 3.03396 1.58356 3.25378 1.58335H5.62878C6.01298 1.57957 6.38545 1.71562 6.67676 1.96615C6.96807 2.21668 7.15834 2.56458 7.21211 2.94502C7.31235 3.70507 7.49826 4.45135 7.76628 5.1696C7.87279 5.45296 7.89584 5.76091 7.8327 6.05697C7.76956 6.35302 7.62288 6.62478 7.41003 6.84002L6.40461 7.84544C7.53159 9.82741 9.17264 11.4685 11.1546 12.5954L12.16 11.59C12.3753 11.3772 12.647 11.2305 12.9431 11.1673C13.2391 11.1042 13.5471 11.1273 13.8304 11.2338C14.5487 11.5018 15.295 11.6877 16.055 11.7879C16.4396 11.8422 16.7908 12.0359 17.0419 12.3322C17.2929 12.6285 17.4263 13.0068 17.4167 13.395Z" stroke="#1E1E1E" stroke-width="4" stroke-linecap="round" stroke-linejoin="round"/>
</g>
<defs>
<clipPath id="clip0_3_286">
<rect width="19" height="19" fill="white"/>
</clipPath>
</defs>
</svg>
